<?xml version="1.0" standalone="no"?>
<!DOCTYPE svg PUBLIC "-//W3C//DTD SVG 20010904//EN"
 "http://www.w3.org/TR/2001/REC-SVG-20010904/DTD/svg10.dtd">
<svg version="1.0" xmlns="http://www.w3.org/2000/svg"
 width="512.000000pt" height="512.000000pt" viewBox="0 0 512.000000 512.000000"
 preserveAspectRatio="xMidYMid meet">
<metadata>
Created by potrace 1.11, written by Peter Selinger 2001-2013
</metadata>
<g transform="translate(0.000000,512.000000) scale(0.100000,-0.100000)"
fill="#000000" stroke="none">
<path d="M2585 2926 c-16 -7 -37 -22 -47 -32 -18 -22 -38 -86 -38 -126 0 -28
0 -28 -70 -28 l-70 0 0 -35 0 -35 70 0 70 0 0 -230 0 -230 45 0 45 0 0 230 0
230 90 0 90 0 0 35 0 35 -90 0 -90 0 0 45 c0 68 22 85 110 85 l70 0 0 35 0 35
-77 0 c-43 -1 -91 -7 -108 -14z"/>
</g>
</svg>
